<?xml version="1.0" encoding="UTF-8"?>
<svg width="90px" height="93px" viewBox="0 0 90 93" version="1.1" xmlns="http://www.w3.org/2000/svg" xmlns:xlink="http://www.w3.org/1999/xlink">
    <!-- Generator: Sketch 42 (36781) - http://www.bohemiancoding.com/sketch -->
    <title>Asset 1 Copy</title>
    <desc>Created with Sketch.</desc>
    <defs></defs>
    <g id="Welcome" stroke="none" stroke-width="1" fill="none" fill-rule="evenodd" opacity="0.87182971">
        <g id="Bildschirm-Klein" transform="translate(-91.000000, -1458.000000)" fill-rule="nonzero" fill="#231F20">
            <g id="Asset-1-Copy" transform="translate(91.000000, 1458.000000)">
                <g id="Asset-1">
                    <g id="Layer_2">
                        <g id="Layer_1-2">
                            <polygon id="Shape" points="38.7452934 61.6692303 51.1254463 61.6692303 51.1254463 25.7293782 69.848517 25.7293782 69.848517 13.3853725 51.1254463 13.3853725 51.1254463 0 38.7452934 0 38.7452934 13.3853725 20.0476962 13.3853725 20.0476962 25.7293782 38.7452934 25.7293782"></polygon>
                            <path d="M88.7753763,42.9500282 C87.7974539,35.4649028 85.8183926,28.1441086 82.8909826,21.1829234 C82.0758285,18.9985932 79.6813134,14.4775376 78.2038465,15.6205011 C76.7263797,16.7634646 77.4396396,17.4492427 77.7198488,24.1292293 C78.000058,30.8092159 78.3312144,31.215603 78.4076351,35.5080659 C78.6904501,37.978302 78.1631529,40.4734226 76.9046947,42.6198387 C78.1950986,42.3787959 79.5163136,42.8437455 80.3690996,43.8389998 C81.0018205,44.6523282 81.2440104,45.7018494 81.0314123,46.7091081 C80.9577802,47.0535698 80.8194924,47.3810444 80.6238353,47.6742773 C79.8596283,48.7918416 66.6643213,63.4725727 66.1039029,64.1075524 C65.9139759,64.3179662 65.5889362,64.3350236 65.3779062,64.1456512 C65.1668763,63.9562788 65.149769,63.6321881 65.3396959,63.4217743 C69.1607307,59.1801098 79.171842,47.9536683 79.7577341,47.0900959 C80.186456,46.275058 80.107171,45.2868885 79.5539455,44.5501771 C78.6425491,43.6434199 77.2647705,43.3908913 76.0895406,43.9151973 C74.3140601,46.2586489 72.3087168,48.4197977 70.1032527,50.3665913 C61.6205553,58.2403398 53.36712,65.9870924 52.5010188,69.1111926 C51.787759,71.6511114 49.5970323,81.9631821 48.8073518,85.6968628 C48.6474542,86.4673792 49.0824973,87.2373261 49.8262944,87.5002052 L65.1104338,92.8848332 C65.5724879,93.0526756 66.0865862,92.9963428 66.5010554,92.7324544 C66.9155247,92.4685661 67.1830632,92.0272387 67.2247398,91.5386762 C67.5813697,87.7795963 68.5748387,79.9058478 70.6381975,77.4675257 C73.3638691,74.2418287 83.6551896,66.8506648 86.3808611,62.0502181 C89.1065326,57.2497714 91.3482064,57.9609487 88.7753763,42.9500282 Z" id="Shape"></path>
                            <path d="M37.3951944,69.034995 C36.5290931,66.0378907 28.2501843,58.1641422 19.7929605,50.2903937 C17.5880869,48.3429983 15.5828007,46.1819109 13.8066726,43.8389998 C12.6314427,43.3146937 11.2536641,43.5672224 10.3422677,44.4739795 C9.78904219,45.210691 9.70975713,46.1988605 10.1384791,47.0138984 C10.7243711,47.8774708 20.760956,59.1039122 24.5565173,63.3455767 C24.6793785,63.4816906 24.7200784,63.6728192 24.6632857,63.8469664 C24.6064931,64.0211136 24.4608361,64.1518221 24.2811823,64.1898554 C24.1015284,64.2278888 23.9151715,64.1674687 23.7923103,64.0313548 C23.2318919,63.3963751 10.0365849,48.7918416 9.2723779,47.5980797 C9.07672081,47.3048469 8.93843299,46.9773723 8.86480085,46.6329105 C8.65220273,45.6256519 8.89439264,44.5761306 9.52711355,43.7628022 C10.3798996,42.767548 11.7011146,42.3025983 12.9915185,42.5436411 C11.7704653,40.4298099 11.2531818,37.984334 11.5140517,35.5588642 C11.5140517,31.2664013 11.9471023,30.8600143 12.2018379,24.1800277 C12.4565736,17.500041 13.195307,16.7634646 11.7178402,15.6205011 C10.2403734,14.4775376 7.84585822,18.9985932 7.00523055,21.1829234 C4.07811073,28.1442077 2.09906008,35.4649625 1.12083689,42.9500282 C-1.42651968,57.9609487 0.891574798,57.198973 3.66819345,61.9740205 C6.44481211,66.749068 16.6851855,74.1402319 19.410857,77.3913281 C21.4742158,79.931247 22.4422113,87.7033987 22.8243148,91.4624787 C22.8659914,91.9510412 23.1335299,92.3923685 23.5479992,92.6562569 C23.9624684,92.9201452 24.4765667,92.9764781 24.9386208,92.8086357 L40.2227602,87.4240077 C40.9665573,87.1611285 41.4016004,86.3911816 41.2417028,85.6206653 C40.2991809,81.8869845 38.2103485,71.5749139 37.3951944,69.034995 Z" id="Shape"></path>
                        </g>
                    </g>
                </g>
            </g>
        </g>
    </g>
</svg>