<?xml version="1.0" encoding="UTF-8"?>
<svg width="392px" height="405px" viewBox="0 0 392 405" version="1.1" xmlns="http://www.w3.org/2000/svg" xmlns:xlink="http://www.w3.org/1999/xlink">
    <!-- Generator: Sketch 42 (36781) - http://www.bohemiancoding.com/sketch -->
    <title>Asset 1</title>
    <desc>Created with Sketch.</desc>
    <defs></defs>
    <g id="Welcome" stroke="none" stroke-width="1" fill="none" fill-rule="evenodd" opacity="0.0599999987">
        <g id="Desktop-HD" transform="translate(-892.000000, -868.000000)" fill-rule="nonzero" fill="#231F20">
            <g id="Asset-1" transform="translate(892.000000, 868.000000)">
                <g id="Layer_2">
                    <g>
                        <g id="Layer_1-2">
                            <polygon id="Shape" points="168.757278 268.559551 222.679721 268.559551 222.679721 112.047292 304.229096 112.047292 304.229096 58.2911382 222.679721 58.2911382 222.679721 0 168.757278 0 168.757278 58.2911382 87.3188544 58.2911382 87.3188544 112.047292 168.757278 112.047292"></polygon>
                            <path d="M386.666083,187.040445 C382.406688,154.443931 373.786776,122.563054 361.03628,92.2482149 C357.485831,82.735809 347.056387,63.0473411 340.621198,68.0247628 C334.18601,73.0021844 337.292652,75.9886374 338.513119,105.078902 C339.733586,134.169166 341.175956,135.938916 341.508811,154.6319 C342.740627,165.38938 340.443955,176.255228 334.96267,185.602523 C340.583096,184.552821 346.337721,186.577601 350.052078,190.911773 C352.807929,194.453687 353.862801,199.024183 352.936818,203.410632 C352.616109,204.910707 352.013789,206.336806 351.161594,207.613788 C347.833048,212.4806 290.360155,276.412816 287.919221,279.178051 C287.091984,280.094369 285.676255,280.168651 284.757103,279.343965 C283.83795,278.519279 283.763438,277.107916 284.590675,276.191598 C301.233405,257.719833 344.837356,208.830491 347.389242,205.069773 C349.256564,201.520414 348.911234,197.217095 346.501629,194.008836 C342.531992,190.060055 336.531,188.960333 331.412221,191.243601 C323.679017,201.448955 314.944633,210.860409 305.338612,219.338381 C268.391752,253.627286 232.443456,287.363144 228.671104,300.968097 C225.564461,312.029034 216.02263,356.936438 212.583132,373.196015 C211.886689,376.55149 213.781544,379.904485 217.021193,381.049281 L283.592112,404.498467 C285.604614,405.229394 287.843798,404.984073 289.649041,403.834882 C291.454285,402.685691 292.619564,400.763782 292.801089,398.636171 C294.35441,382.265984 298.68152,347.977079 307.668594,337.35858 C319.540408,323.311189 364.364826,291.123863 376.23664,270.218692 C388.108453,249.313521 397.872188,252.410583 386.666083,187.040445 Z" id="Shape"></path>
                            <path d="M162.876847,300.636269 C159.104495,287.584363 123.045247,253.295458 86.2093391,219.006553 C76.6058897,210.52596 67.8717542,201.114773 60.1357295,190.911773 C55.0169505,188.628505 49.0159592,189.728226 45.0463213,193.677007 C42.6367171,196.885267 42.2913866,201.188586 44.1587091,204.737944 C46.7105943,208.498663 90.4254973,257.388005 106.957275,275.85977 C107.492404,276.452523 107.669675,277.284858 107.422311,278.043241 C107.174948,278.801624 106.54053,279.370838 105.758038,279.536467 C104.975546,279.702096 104.163858,279.438976 103.628729,278.846223 C101.187796,276.080988 43.714903,212.4806 40.3863571,207.28196 C39.5341617,206.004978 38.9318415,204.578879 38.6111326,203.078804 C37.6851497,198.692355 38.7400213,194.121859 41.4958724,190.579945 C45.2102293,186.245773 50.9648545,184.220993 56.5852805,185.270695 C51.2669155,176.065301 49.0138587,165.415648 50.1500917,154.853118 C50.1500917,136.160135 52.0362678,134.390385 53.1457831,105.300121 C54.2552984,76.2098562 57.4728927,73.0021844 51.037704,68.0247628 C44.6025152,63.0473411 34.1730714,82.735809 30.5116709,92.2482149 C17.7624379,122.563485 9.1425728,154.444191 4.88186734,187.040445 C-6.2132857,252.410583 3.88330356,249.092302 15.9770204,269.886864 C28.0707372,290.681425 72.6732524,322.868752 84.5450662,337.026751 C93.5321401,348.087688 97.7482983,381.934156 99.4125712,398.304343 C99.5940957,400.431953 100.759375,402.353863 102.564619,403.503054 C104.369862,404.652245 106.609046,404.897566 108.621548,404.166639 L175.192466,380.717453 C178.432116,379.572657 180.326971,376.219662 179.630528,372.864187 C175.525321,356.60461 166.427296,311.697206 162.876847,300.636269 Z" id="Shape"></path>
                        </g>
                    </g>
                </g>
            </g>
        </g>
    </g>
</svg>