<svg xmlns="http://www.w3.org/2000/svg" viewBox="3247.65 89.648 98.488 98.484">
  <defs>
    <style>
      .cls-1, .cls-2, .cls-3, .cls-4, .cls-5 {
        fill: #797979;
      }

      .cls-2, .cls-3 {
        font-size: 17px;
        font-family: BrandonGrotesque-Black, Brandon Grotesque;
        font-weight: 800;
      }

      .cls-2, .cls-4 {
        letter-spacing: 0.05em;
      }

      .cls-3 {
        letter-spacing: -0.2em;
      }

      .cls-4, .cls-5 {
        font-size: 11px;
        font-family: BrandonGrotesque-Thin, Brandon Grotesque;
        font-weight: 200;
      }

      .cls-5 {
        letter-spacing: 0.08em;
      }

      .cls-6 {
        fill: #fff;
      }
    </style>
  </defs>
  <g id="Asset_6" data-name="Asset 6" transform="translate(3247.66 89.649)">
    <g id="Ebene_1" data-name="Ebene 1" transform="translate(-0.01 0)">
      <path id="Path_31" data-name="Path 31" class="cls-1" d="M124.261,4.3a2.015,2.015,0,0,1,.054-.8,2.462,2.462,0,0,1,.723-1.071,2.5,2.5,0,0,0,.509-1.147,2.508,2.508,0,0,0,.509,1.147,2.462,2.462,0,0,1,.726,1.071,2.011,2.011,0,0,1,.054.8c-.023.161.023.195.13.05a2.294,2.294,0,0,0,.566-1.25,1.529,1.529,0,0,0-.382-1.036c-.325-.4-.765-.681-1.109-1.086a1.793,1.793,0,0,1-.344-.707c-.042-.176-.1-.264-.149-.268s-.107.088-.149.268a1.793,1.793,0,0,1-.356.711c-.329.405-.765.681-1.109,1.086A1.529,1.529,0,0,0,123.55,3.1a2.294,2.294,0,0,0,.566,1.25C124.234,4.492,124.284,4.458,124.261,4.3Z" transform="translate(-76.307 0)"/>
      <path id="Path_32" data-name="Path 32" class="cls-1" d="M147.949,16.595c0-.031-.038-.061-.05-.069a1.094,1.094,0,0,0-.115-.076c-1.491-1.048-3.594-.765-5.3.092-1.468.765-2.428,1.418-3.5,2.011a2.007,2.007,0,0,0-.279.149,12.235,12.235,0,0,1-3.533,1.281,6.4,6.4,0,0,1-3.25-.382,3.339,3.339,0,0,1-2.206-2.745,2.053,2.053,0,0,1,.585-1.583,1.56,1.56,0,0,1,1.648-.413,9.523,9.523,0,0,1,2.176,1.223,13.218,13.218,0,0,0,3.021,1.912c.187.092.421.172.612.271h0a.111.111,0,0,0,.1,0c.027-.027-.034-.054-.046-.057-.245-.122-.428-.249-.658-.382a13.256,13.256,0,0,1-2.91-2l-.382-.348a3.5,3.5,0,0,0-2.952-1.017,2,2,0,0,0-.86.551,2.527,2.527,0,0,0-.665,1.828,3.881,3.881,0,0,0,3.059,3.552,9.943,9.943,0,0,0,7.265-.8,11.4,11.4,0,0,0,1.147-.65c.076-.05.226-.13.352-.218a18.4,18.4,0,0,1,4.278-2.294,3.41,3.41,0,0,1,2.1.157l.057.031h0l.061.038h0a.168.168,0,0,0,.084,0,.1.1,0,0,0,.054,0,.095.095,0,0,1,.107-.057Z" transform="translate(-79.91 -8.894)"/>
      <path id="Path_33" data-name="Path 33" class="cls-1" d="M79.64,16.595c0-.031.038-.061.05-.069a1.094,1.094,0,0,1,.115-.076c1.491-1.048,3.594-.765,5.3.092,1.468.765,2.428,1.418,3.5,2.011a2.007,2.007,0,0,1,.279.149,12.235,12.235,0,0,0,3.529,1.281,6.4,6.4,0,0,0,3.25-.382,3.338,3.338,0,0,0,2.206-2.745,2.053,2.053,0,0,0-.585-1.583,1.56,1.56,0,0,0-1.648-.413,9.523,9.523,0,0,0-2.176,1.224,13.218,13.218,0,0,1-3.021,1.912c-.187.092-.421.172-.612.271h0a.111.111,0,0,1-.1,0c-.027-.027.034-.054.046-.057.245-.122.428-.249.658-.382a13.256,13.256,0,0,0,2.91-2l.382-.348a3.5,3.5,0,0,1,2.952-1.017,2,2,0,0,1,.864.551,2.527,2.527,0,0,1,.665,1.828,3.881,3.881,0,0,1-3.059,3.552,9.943,9.943,0,0,1-7.265-.8,11.4,11.4,0,0,1-1.147-.65c-.076-.05-.226-.13-.352-.218A18.4,18.4,0,0,0,82.1,16.426a3.411,3.411,0,0,0-2.1.157l-.057.031h0l-.061.038h0a.168.168,0,0,1-.084,0,.1.1,0,0,1-.054,0,.095.095,0,0,0-.107-.057Z" transform="translate(-49.186 -8.894)"/>
      <path id="Path_34" data-name="Path 34" class="cls-1" d="M126.895,246.1a2.015,2.015,0,0,1-.054.8,2.462,2.462,0,0,1-.723,1.071,2.5,2.5,0,0,0-.509,1.147,2.508,2.508,0,0,0-.509-1.147,2.462,2.462,0,0,1-.723-1.074,2.011,2.011,0,0,1-.054-.8c.023-.161-.023-.2-.13-.05a2.294,2.294,0,0,0-.566,1.25,1.529,1.529,0,0,0,.382,1.036c.325.4.765.681,1.109,1.086a1.793,1.793,0,0,1,.356.711c.042.176.1.264.149.268s.107-.088.149-.268a1.793,1.793,0,0,1,.356-.711c.329-.405.765-.681,1.109-1.086a1.529,1.529,0,0,0,.382-1.032,2.294,2.294,0,0,0-.566-1.25C126.918,245.91,126.872,245.944,126.895,246.1Z" transform="translate(-76.357 -151.918)"/>
      <path id="Path_35" data-name="Path 35" class="cls-1" d="M79.64,230.769c0,.031.038.061.05.069a1.1,1.1,0,0,0,.115.076c1.491,1.048,3.594.765,5.3-.092,1.468-.765,2.428-1.418,3.5-2.011a2.009,2.009,0,0,0,.279-.149,12.234,12.234,0,0,1,3.529-1.277,6.4,6.4,0,0,1,3.25.382,3.338,3.338,0,0,1,2.206,2.745,2.053,2.053,0,0,1-.585,1.583,1.56,1.56,0,0,1-1.648.413,9.524,9.524,0,0,1-2.176-1.223,13.217,13.217,0,0,0-3.021-1.912c-.187-.092-.421-.172-.612-.271h0a.111.111,0,0,0-.1,0c-.027.027.034.054.046.057.245.122.428.249.658.382a13.251,13.251,0,0,1,2.91,2l.382.348a3.5,3.5,0,0,0,2.952,1.017,2,2,0,0,0,.868-.52,2.527,2.527,0,0,0,.665-1.828,3.881,3.881,0,0,0-3.059-3.552,9.943,9.943,0,0,0-7.265.8,11.394,11.394,0,0,0-1.147.65c-.076.05-.226.13-.352.218a18.4,18.4,0,0,1-4.278,2.294,3.41,3.41,0,0,1-2.1-.157l-.057-.031h0l-.061-.038h0a.172.172,0,0,0-.084,0,.1.1,0,0,0-.054,0,.1.1,0,0,0-.069.057A.107.107,0,0,0,79.64,230.769Z" transform="translate(-49.186 -139.985)"/>
      <path id="Path_36" data-name="Path 36" class="cls-1" d="M147.942,230.769c0,.031-.038.061-.05.069a1.1,1.1,0,0,1-.115.076c-1.491,1.048-3.594.765-5.3-.092-1.468-.765-2.428-1.418-3.5-2.011a2.008,2.008,0,0,1-.279-.149,12.234,12.234,0,0,0-3.529-1.277,6.4,6.4,0,0,0-3.25.382,3.339,3.339,0,0,0-2.206,2.745,2.053,2.053,0,0,0,.585,1.583,1.56,1.56,0,0,0,1.648.413,9.524,9.524,0,0,0,2.176-1.223,13.218,13.218,0,0,1,3.021-1.912c.187-.092.421-.172.612-.271h0a.111.111,0,0,1,.1,0c.027.027-.034.054-.046.057-.245.122-.428.249-.658.382a13.252,13.252,0,0,0-2.91,2l-.382.348a3.5,3.5,0,0,1-2.952,1.017,2,2,0,0,1-.868-.52,2.527,2.527,0,0,1-.665-1.828,3.881,3.881,0,0,1,3.059-3.552,9.943,9.943,0,0,1,7.265.8,11.394,11.394,0,0,1,1.147.65c.076.05.226.13.352.218a18.4,18.4,0,0,0,4.278,2.294,3.41,3.41,0,0,0,2.1-.157l.057-.031h0l.061-.038h0a.172.172,0,0,1,.084,0,.1.1,0,0,1,.054,0,.1.1,0,0,1,.069.057A.107.107,0,0,1,147.942,230.769Z" transform="translate(-79.904 -139.985)"/>
      <path id="Path_37" data-name="Path 37" class="cls-1" d="M246.1,124.236a2.015,2.015,0,0,1,.8.054,2.462,2.462,0,0,1,1.071.723,2.5,2.5,0,0,0,1.147.509,2.508,2.508,0,0,0-1.147.509,2.462,2.462,0,0,1-1.074.723,2.011,2.011,0,0,1-.8.054c-.161-.023-.2.023-.05.13a2.294,2.294,0,0,0,1.25.566,1.529,1.529,0,0,0,1.036-.382c.4-.325.681-.765,1.086-1.109a1.793,1.793,0,0,1,.711-.356c.176-.042.264-.1.268-.149s-.088-.107-.268-.149a1.793,1.793,0,0,1-.711-.356c-.405-.329-.681-.765-1.086-1.109a1.529,1.529,0,0,0-1.032-.382,2.294,2.294,0,0,0-1.25.566C245.91,124.209,245.944,124.259,246.1,124.236Z" transform="translate(-151.914 -76.286)"/>
      <path id="Path_38" data-name="Path 38" class="cls-1" d="M230.769,147.942c.031,0,.061-.038.069-.05a1.089,1.089,0,0,0,.076-.115c1.048-1.491.765-3.594-.092-5.3-.765-1.468-1.418-2.428-2.011-3.5a2.009,2.009,0,0,0-.149-.279,12.234,12.234,0,0,1-1.277-3.529,6.4,6.4,0,0,1,.382-3.25,3.339,3.339,0,0,1,2.745-2.206,2.053,2.053,0,0,1,1.583.585,1.56,1.56,0,0,1,.413,1.648,9.524,9.524,0,0,1-1.223,2.176,13.216,13.216,0,0,0-1.912,3.021c-.092.187-.172.421-.271.612h0a.111.111,0,0,0,0,.1c.027.027.054-.034.057-.046.122-.245.249-.428.382-.658a13.256,13.256,0,0,1,2-2.91l.348-.382a3.5,3.5,0,0,0,1.017-2.952,2,2,0,0,0-.52-.868,2.527,2.527,0,0,0-1.828-.665,3.881,3.881,0,0,0-3.552,3.059,9.943,9.943,0,0,0,.8,7.265,11.394,11.394,0,0,0,.65,1.147c.05.076.13.226.218.352a18.4,18.4,0,0,1,2.294,4.278,3.41,3.41,0,0,1-.157,2.1l-.031.057h0a.474.474,0,0,1-.038.061h0a.172.172,0,0,0,0,.084.1.1,0,0,0,0,.054.1.1,0,0,0,.057.069Z" transform="translate(-139.982 -79.908)"/>
      <path id="Path_39" data-name="Path 39" class="cls-1" d="M230.769,79.64c.031,0,.061.038.069.05a1.1,1.1,0,0,1,.076.115c1.048,1.491.765,3.594-.092,5.3-.765,1.468-1.418,2.428-2.011,3.5a2.009,2.009,0,0,1-.149.279,12.234,12.234,0,0,0-1.277,3.529,6.4,6.4,0,0,0,.382,3.25,3.338,3.338,0,0,0,2.745,2.206,2.053,2.053,0,0,0,1.583-.585,1.56,1.56,0,0,0,.413-1.648,9.524,9.524,0,0,0-1.223-2.176,13.216,13.216,0,0,1-1.912-3.021c-.092-.187-.172-.421-.271-.612h0a.111.111,0,0,1,0-.1c.027-.027.054.034.057.046.122.245.249.428.382.658a13.251,13.251,0,0,0,2,2.91l.348.382a3.5,3.5,0,0,1,1.017,2.952,2,2,0,0,1-.52.868,2.527,2.527,0,0,1-1.828.665,3.881,3.881,0,0,1-3.552-3.059,9.943,9.943,0,0,1,.8-7.265,11.394,11.394,0,0,1,.65-1.147c.05-.076.13-.226.218-.352a18.4,18.4,0,0,0,2.294-4.278,3.41,3.41,0,0,0-.157-2.1l-.031-.057h0a.474.474,0,0,0-.038-.061h0a.172.172,0,0,1,0-.084.1.1,0,0,1,0-.054.1.1,0,0,1,.057-.069Z" transform="translate(-139.982 -49.19)"/>
      <path id="Path_40" data-name="Path 40" class="cls-1" d="M4.291,126.876a2.015,2.015,0,0,1-.8-.065,2.466,2.466,0,0,1-1.071-.723,2.5,2.5,0,0,0-1.147-.508,2.508,2.508,0,0,0,1.147-.509,2.462,2.462,0,0,1,1.074-.723,2.011,2.011,0,0,1,.8-.054c.161.023.195-.023.05-.13a2.294,2.294,0,0,0-1.25-.566,1.529,1.529,0,0,0-1.036.382c-.4.325-.681.765-1.086,1.109a1.793,1.793,0,0,1-.711.356c-.176.042-.264.1-.268.149s.088.107.268.149a1.793,1.793,0,0,1,.711.356c.405.329.681.765,1.086,1.109a1.529,1.529,0,0,0,1.032.382,2.294,2.294,0,0,0,1.25-.566C4.486,126.9,4.452,126.853,4.291,126.876Z" transform="translate(0.01 -76.342)"/>
      <path id="Path_41" data-name="Path 41" class="cls-1" d="M16.595,79.64c-.031,0-.061.038-.069.05a1.094,1.094,0,0,0-.076.115c-1.048,1.491-.765,3.594.092,5.3.765,1.468,1.418,2.428,2.011,3.5a2.007,2.007,0,0,0,.149.279,12.235,12.235,0,0,1,1.281,3.529,6.4,6.4,0,0,1-.382,3.25,3.338,3.338,0,0,1-2.745,2.206,2.053,2.053,0,0,1-1.583-.585,1.56,1.56,0,0,1-.413-1.648,9.523,9.523,0,0,1,1.224-2.176,13.218,13.218,0,0,0,1.912-3.021c.092-.187.172-.421.271-.612h0a.111.111,0,0,0,0-.1c-.027-.027-.054.034-.057.046-.122.245-.249.428-.382.658a13.252,13.252,0,0,1-2,2.91l-.348.382a3.5,3.5,0,0,0-1.017,2.952,2,2,0,0,0,.551.864,2.527,2.527,0,0,0,1.828.665,3.881,3.881,0,0,0,3.552-3.059,9.943,9.943,0,0,0-.8-7.265,11.4,11.4,0,0,0-.65-1.147c-.05-.076-.13-.226-.218-.352A18.4,18.4,0,0,1,16.426,82.1a3.411,3.411,0,0,1,.157-2.1l.031-.057h0a.474.474,0,0,1,.038-.061h0a.172.172,0,0,0,0-.084.1.1,0,0,0,0-.054.1.1,0,0,0-.057-.069Z" transform="translate(-8.89 -49.19)"/>
      <path id="Path_42" data-name="Path 42" class="cls-1" d="M16.595,147.949c-.031,0-.061-.038-.069-.05a1.091,1.091,0,0,1-.076-.115c-1.048-1.491-.765-3.594.092-5.3.765-1.468,1.418-2.428,2.011-3.5a2.007,2.007,0,0,1,.149-.279,12.235,12.235,0,0,0,1.281-3.533,6.4,6.4,0,0,0-.382-3.25,3.339,3.339,0,0,0-2.745-2.206,2.053,2.053,0,0,0-1.583.585,1.56,1.56,0,0,0-.413,1.648,9.523,9.523,0,0,0,1.224,2.176,13.218,13.218,0,0,1,1.912,3.021c.092.187.172.421.271.612h0a.111.111,0,0,1,0,.1c-.027.027-.054-.034-.057-.046-.122-.245-.249-.428-.382-.658a13.256,13.256,0,0,0-2-2.91l-.348-.382a3.5,3.5,0,0,1-1.017-2.952,2,2,0,0,1,.551-.86,2.527,2.527,0,0,1,1.828-.665,3.881,3.881,0,0,1,3.552,3.059,9.943,9.943,0,0,1-.8,7.265,11.4,11.4,0,0,1-.65,1.147c-.05.076-.13.226-.218.352a18.4,18.4,0,0,0-2.294,4.278,3.41,3.41,0,0,0,.157,2.1l.031.057h0a.474.474,0,0,0,.038.061h0a.172.172,0,0,1,0,.084.1.1,0,0,1,0,.054.1.1,0,0,1-.057.069Z" transform="translate(-8.89 -79.914)"/>
      <path id="Path_43" data-name="Path 43" class="cls-1" d="M209.3,39.794a2.015,2.015,0,0,1,.6-.524,2.462,2.462,0,0,1,1.269-.249,2.5,2.5,0,0,0,1.174-.451,2.508,2.508,0,0,0-.455,1.17,2.462,2.462,0,0,1-.249,1.269,2.011,2.011,0,0,1-.528.589c-.13.1-.122.157.057.126a2.294,2.294,0,0,0,1.285-.482,1.529,1.529,0,0,0,.47-.979c.054-.516-.069-1.032,0-1.552a1.793,1.793,0,0,1,.252-.765c.1-.157.119-.252.084-.294s-.141,0-.294.084a1.793,1.793,0,0,1-.765.249c-.516.054-1.036-.073-1.552,0a1.529,1.529,0,0,0-.99.474,2.294,2.294,0,0,0-.486,1.285C209.147,39.913,209.208,39.924,209.3,39.794Z" transform="translate(-129.191 -23.247)"/>
      <path id="Path_44" data-name="Path 44" class="cls-1" d="M217.348,64.435c.023-.023,0-.073,0-.084a1.1,1.1,0,0,0-.027-.134c-.314-1.8-1.988-3.093-3.823-3.686-1.568-.509-2.718-.715-3.9-1.051l-.3-.092a12.235,12.235,0,0,1-3.4-1.591,6.4,6.4,0,0,1-2.026-2.569,3.335,3.335,0,0,1,.382-3.5,2.053,2.053,0,0,1,1.529-.707,1.56,1.56,0,0,1,1.483.872,9.347,9.347,0,0,1,.669,2.4,13.222,13.222,0,0,0,.765,3.491c.069.2.176.417.241.623h0a.111.111,0,0,0,.073.073c.038,0,0-.061,0-.073-.088-.256-.126-.478-.206-.723a13.256,13.256,0,0,1-.612-3.468c0-.065-.027-.44-.034-.524a3.5,3.5,0,0,0-1.369-2.806,2,2,0,0,0-.983-.249,2.527,2.527,0,0,0-1.763.822,3.888,3.888,0,0,0-.336,4.688,9.787,9.787,0,0,0,5.7,4.569c.359.122.8.241,1.273.356a2.64,2.64,0,0,1,.382.1,17.976,17.976,0,0,1,4.645,1.407A3.411,3.411,0,0,1,217.1,64.16l.019.061h0a.473.473,0,0,1,0,.073v.019h0a.172.172,0,0,0,.046.073.1.1,0,0,0,.042.034.1.1,0,0,0,.088,0Z" transform="translate(-125.44 -31.278)"/>
      <path id="Path_45" data-name="Path 45" class="cls-1" d="M170.832,17.194c.023-.023.073,0,.084,0a1.093,1.093,0,0,1,.134.027c1.8.314,3.093,1.988,3.686,3.823.509,1.568.715,2.718,1.051,3.9,0,.031.08.26.092.3a12.235,12.235,0,0,0,1.591,3.4,6.4,6.4,0,0,0,2.569,2.026,3.335,3.335,0,0,0,3.5-.382,2.053,2.053,0,0,0,.707-1.529,1.56,1.56,0,0,0-.872-1.457,9.346,9.346,0,0,0-2.4-.669,13.217,13.217,0,0,1-3.491-.765c-.2-.069-.417-.176-.623-.241h0a.111.111,0,0,1-.073-.073c0-.038.061,0,.073,0,.256.088.478.126.723.206a13.256,13.256,0,0,0,3.472.642l.524.034a3.5,3.5,0,0,1,2.806,1.369,2,2,0,0,1,.249.983,2.527,2.527,0,0,1-.845,1.705,3.888,3.888,0,0,1-4.688.336,9.885,9.885,0,0,1-4.558-5.693c-.122-.359-.241-.8-.356-1.273a2.639,2.639,0,0,0-.1-.382,17.976,17.976,0,0,0-1.407-4.645,3.411,3.411,0,0,0-1.594-1.373l-.061-.019h-.1a.168.168,0,0,1-.073-.046.1.1,0,0,1-.034-.042.1.1,0,0,1,0-.088A.107.107,0,0,1,170.832,17.194Z" transform="translate(-105.501 -10.613)"/>
      <path id="Path_46" data-name="Path 46" class="cls-1" d="M41.631,211.149a2.015,2.015,0,0,1-.6.524,2.462,2.462,0,0,1-1.269.249,2.5,2.5,0,0,0-1.174.451,2.508,2.508,0,0,0,.455-1.17,2.462,2.462,0,0,1,.249-1.269,2.011,2.011,0,0,1,.528-.6c.13-.1.122-.157-.057-.126a2.294,2.294,0,0,0-1.285.482,1.529,1.529,0,0,0-.474.99c-.054.516.069,1.032,0,1.552a1.793,1.793,0,0,1-.252.765c-.1.157-.119.252-.084.294s.141,0,.294-.084a1.793,1.793,0,0,1,.765-.249c.516-.054,1.036.073,1.552,0a1.529,1.529,0,0,0,.99-.474,2.294,2.294,0,0,0,.486-1.285C41.787,211.035,41.726,211.035,41.631,211.149Z" transform="translate(-23.251 -129.213)"/>
      <path id="Path_47" data-name="Path 47" class="cls-1" d="M17.194,170.838c-.023.023,0,.073,0,.084a1.094,1.094,0,0,0,.027.134c.314,1.8,1.988,3.093,3.823,3.686,1.568.509,2.718.715,3.9,1.051l.3.092a12.235,12.235,0,0,1,3.4,1.591,6.4,6.4,0,0,1,2.026,2.569,3.335,3.335,0,0,1-.382,3.5,2.053,2.053,0,0,1-1.529.707,1.56,1.56,0,0,1-1.457-.872,9.346,9.346,0,0,1-.669-2.4,13.221,13.221,0,0,0-.765-3.491c-.069-.2-.176-.417-.241-.623h0a.111.111,0,0,0-.073-.073c-.038,0,0,.061,0,.073.088.256.126.478.206.723a13.252,13.252,0,0,1,.642,3.472c0,.065.027.44.034.524a3.5,3.5,0,0,0,1.369,2.806,2,2,0,0,0,.983.249,2.527,2.527,0,0,0,1.705-.845,3.888,3.888,0,0,0,.336-4.688,9.885,9.885,0,0,0-5.693-4.558c-.359-.122-.8-.241-1.273-.356a2.637,2.637,0,0,1-.382-.1,17.976,17.976,0,0,1-4.645-1.407,3.411,3.411,0,0,1-1.373-1.594l-.019-.061h0a.474.474,0,0,1,0-.073v-.019h0a.172.172,0,0,0-.046-.073.1.1,0,0,0-.042-.034.1.1,0,0,0-.088,0Z" transform="translate(-10.609 -105.511)"/>
      <path id="Path_48" data-name="Path 48" class="cls-1" d="M64.435,217.348c-.023.023-.073,0-.084,0a1.084,1.084,0,0,1-.134-.027c-1.8-.314-3.093-1.988-3.686-3.823-.509-1.568-.715-2.718-1.051-3.9,0-.031-.08-.26-.092-.3a12.235,12.235,0,0,0-1.591-3.4,6.4,6.4,0,0,0-2.569-2.026,3.335,3.335,0,0,0-3.5.382,2.053,2.053,0,0,0-.707,1.529,1.56,1.56,0,0,0,.872,1.483,9.347,9.347,0,0,0,2.4.669,13.217,13.217,0,0,1,3.491.765c.2.069.417.176.623.241h0a.111.111,0,0,1,.073.073c0,.038-.061,0-.073,0-.256-.088-.478-.126-.723-.206a13.253,13.253,0,0,0-3.468-.612l-.524-.034a3.5,3.5,0,0,1-2.806-1.369,2,2,0,0,1-.249-.983,2.527,2.527,0,0,1,.822-1.763,3.888,3.888,0,0,1,4.688-.336,9.787,9.787,0,0,1,4.569,5.7c.122.359.241.8.356,1.273a2.64,2.64,0,0,0,.1.382,17.976,17.976,0,0,0,1.407,4.645A3.411,3.411,0,0,0,64.16,217.1l.061.019h.1a.169.169,0,0,1,.073.046.1.1,0,0,1,.034.042.338.338,0,0,0,.011.141Z" transform="translate(-31.274 -125.443)"/>
      <path id="Path_49" data-name="Path 49" class="cls-1" d="M211.149,209.307a2.015,2.015,0,0,1,.524.6,2.466,2.466,0,0,1,.249,1.269,2.5,2.5,0,0,0,.451,1.174,2.508,2.508,0,0,0-1.17-.455,2.466,2.466,0,0,1-1.269-.249,2.011,2.011,0,0,1-.6-.528c-.1-.13-.157-.122-.126.057a2.294,2.294,0,0,0,.482,1.285,1.529,1.529,0,0,0,.99.474c.516.054,1.032-.069,1.552,0a1.793,1.793,0,0,1,.765.252c.157.1.256.119.294.084s0-.138-.084-.294a1.793,1.793,0,0,1-.249-.765c-.054-.516.073-1.036,0-1.552a1.529,1.529,0,0,0-.474-.99,2.294,2.294,0,0,0-1.285-.486C211.035,209.15,211.035,209.211,211.149,209.307Z" transform="translate(-129.209 -129.198)"/>
      <path id="Path_50" data-name="Path 50" class="cls-1" d="M170.831,217.255c.023.023.073,0,.084,0a1.086,1.086,0,0,0,.134-.027c1.8-.314,3.093-1.988,3.686-3.823.509-1.568.715-2.718,1.051-3.9,0-.031.08-.26.092-.3a12.235,12.235,0,0,1,1.591-3.4,6.4,6.4,0,0,1,2.569-2.026,3.335,3.335,0,0,1,3.5.382,2.053,2.053,0,0,1,.707,1.529,1.56,1.56,0,0,1-.872,1.457,9.345,9.345,0,0,1-2.4.669,13.217,13.217,0,0,0-3.491.765c-.2.069-.417.176-.623.241h0a.111.111,0,0,0-.073.073c0,.038.061,0,.073,0,.256-.088.478-.126.723-.206a13.252,13.252,0,0,1,3.472-.642l.524-.034a3.5,3.5,0,0,0,2.806-1.369,2,2,0,0,0,.249-.983,2.527,2.527,0,0,0-.822-1.763,3.888,3.888,0,0,0-4.688-.336,9.885,9.885,0,0,0-4.558,5.693c-.122.359-.241.8-.356,1.273a2.641,2.641,0,0,1-.1.382,17.976,17.976,0,0,1-1.407,4.645,3.411,3.411,0,0,1-1.594,1.373l-.061.019h-.1a.168.168,0,0,0-.073.046.1.1,0,0,0-.034.042.978.978,0,0,1-.015.222Z" transform="translate(-105.5 -125.351)"/>
      <path id="Path_51" data-name="Path 51" class="cls-1" d="M217.255,170.86c.023.023,0,.073,0,.084a1.094,1.094,0,0,1-.027.134c-.314,1.8-1.988,3.093-3.823,3.686-1.568.509-2.718.715-3.9,1.051l-.3.092a12.235,12.235,0,0,0-3.4,1.591,6.4,6.4,0,0,0-2.026,2.569,3.335,3.335,0,0,0,.382,3.5,2.053,2.053,0,0,0,1.529.707,1.56,1.56,0,0,0,1.457-.872,9.345,9.345,0,0,0,.669-2.4,13.22,13.22,0,0,1,.765-3.491c.069-.2.176-.417.241-.623h0a.111.111,0,0,1,.073-.073c.038,0,0,.061,0,.073-.088.256-.126.478-.206.723a13.252,13.252,0,0,0-.642,3.472c0,.065-.027.44-.034.524a3.5,3.5,0,0,1-1.369,2.806,2,2,0,0,1-.983.249,2.527,2.527,0,0,1-1.763-.822,3.888,3.888,0,0,1-.336-4.688,9.885,9.885,0,0,1,5.693-4.558c.359-.122.8-.241,1.273-.356a2.64,2.64,0,0,0,.382-.1,17.976,17.976,0,0,0,4.645-1.407,3.411,3.411,0,0,0,1.373-1.594l.019-.061h0a.473.473,0,0,0,0-.073v-.019h0a.172.172,0,0,1,.046-.073.1.1,0,0,1,.042-.034.1.1,0,0,1,.088,0Z" transform="translate(-125.347 -105.533)"/>
      <path id="Path_52" data-name="Path 52" class="cls-1" d="M39.776,41.624a2.015,2.015,0,0,1-.524-.6A2.466,2.466,0,0,1,39,39.755a2.5,2.5,0,0,0-.451-1.174,2.508,2.508,0,0,0,1.17.455,2.462,2.462,0,0,1,1.269.249,2.011,2.011,0,0,1,.589.524c.1.13.157.122.126-.057a2.294,2.294,0,0,0-.482-1.285,1.529,1.529,0,0,0-.99-.474c-.516-.054-1.032.069-1.552,0a1.793,1.793,0,0,1-.765-.252c-.157-.1-.252-.119-.294-.084s0,.138.084.294a1.793,1.793,0,0,1,.249.765c.054.516-.073,1.036,0,1.552a1.529,1.529,0,0,0,.474.99,2.294,2.294,0,0,0,1.285.486C39.894,41.781,39.906,41.72,39.776,41.624Z" transform="translate(-23.224 -23.249)"/>
      <path id="Path_53" data-name="Path 53" class="cls-1" d="M64.435,17.194c-.023-.023-.073,0-.084,0a1.093,1.093,0,0,0-.134.027c-1.8.314-3.093,1.988-3.686,3.823-.509,1.568-.715,2.718-1.051,3.9,0,.031-.08.26-.092.3a12.235,12.235,0,0,1-1.591,3.4,6.4,6.4,0,0,1-2.569,2.026,3.335,3.335,0,0,1-3.5-.382,2.053,2.053,0,0,1-.707-1.529A1.56,1.56,0,0,1,51.89,27.3a9.346,9.346,0,0,1,2.4-.669,13.218,13.218,0,0,0,3.491-.765c.2-.069.417-.176.623-.241h0a.111.111,0,0,0,.073-.073c0-.038-.061,0-.073,0-.256.088-.478.126-.723.206a13.256,13.256,0,0,1-3.468.585l-.524.034a3.5,3.5,0,0,0-2.806,1.369,2,2,0,0,0-.249.983,2.527,2.527,0,0,0,.841,1.763,3.888,3.888,0,0,0,4.688.336,9.881,9.881,0,0,0,4.55-5.689c.122-.359.241-.8.356-1.273a2.64,2.64,0,0,1,.1-.382,17.976,17.976,0,0,1,1.407-4.645,3.411,3.411,0,0,1,1.583-1.4l.061-.019h.1a.168.168,0,0,0,.073-.046.1.1,0,0,0,.034-.042.1.1,0,0,0,0-.088A.107.107,0,0,0,64.435,17.194Z" transform="translate(-31.274 -10.613)"/>
      <path id="Path_54" data-name="Path 54" class="cls-1" d="M17.194,64.435c-.023-.023,0-.073,0-.084a1.1,1.1,0,0,1,.027-.134c.314-1.8,1.988-3.093,3.823-3.686,1.568-.509,2.718-.715,3.9-1.051l.3-.092a12.235,12.235,0,0,0,3.4-1.591,6.4,6.4,0,0,0,2.026-2.569,3.335,3.335,0,0,0-.382-3.5,2.053,2.053,0,0,0-1.529-.707,1.56,1.56,0,0,0-1.457.872,9.346,9.346,0,0,0-.669,2.4,13.222,13.222,0,0,1-.765,3.491c-.069.2-.176.417-.241.623h0a.111.111,0,0,1-.073.073c-.038,0,0-.061,0-.073.088-.256.126-.478.206-.723a13.256,13.256,0,0,0,.585-3.468c0-.065.027-.44.034-.524a3.5,3.5,0,0,1,1.369-2.806,2,2,0,0,1,.983-.249,2.527,2.527,0,0,1,1.763.841,3.888,3.888,0,0,1,.336,4.688,9.881,9.881,0,0,1-5.689,4.55c-.359.122-.8.241-1.273.356a2.64,2.64,0,0,0-.382.1,17.976,17.976,0,0,0-4.645,1.407,3.411,3.411,0,0,0-1.4,1.583l-.019.061h0a.474.474,0,0,0,0,.073v.019h0a.172.172,0,0,1-.046.073.1.1,0,0,1-.042.034.1.1,0,0,1-.088,0Z" transform="translate(-10.609 -31.278)"/>
      <g id="Group_175" data-name="Group 175" transform="translate(21.74 34.583)">
        <text id="LIV" class="cls-2" transform="translate(6.297 18)"><tspan x="0" y="0">LIV</tspan></text>
        <text id="E_" data-name="E " class="cls-3" transform="translate(36.858 18)"><tspan x="0" y="0">E </tspan></text>
        <text id="C" class="cls-4" transform="translate(0 33.392)"><tspan x="0" y="0">C</tspan></text>
        <text id="L" class="cls-5" transform="translate(9.929 33.392)"><tspan x="0" y="0">L</tspan></text>
        <text id="ASSIC" class="cls-4" transform="translate(17.171 33.392)"><tspan x="0" y="0">ASSIC</tspan></text>
      </g>
      <path id="Path_55" data-name="Path 55" class="cls-6" d="M101.92,72.4s2.351,3.575,4.795-.088c0,0,3.059-3.747,6.186-.26a3.732,3.732,0,0,1,5.307-.631c.669.7,1.763,2.294,3.235,2.214,1.308-.088,1.4.176,2-.784a2.623,2.623,0,0,0,.436-.784s.872,3.487-4.183,5.735c0,0-3.487,1.22-6.622-2.439C113.073,75.362,106.1,83.208,101.92,72.4Z" transform="translate(-62.948 -43.585)"/>
    </g>
  </g>
</svg>
