<?xml version="1.0" encoding="UTF-8"?>
<svg width="479px" height="479px" viewBox="0 0 479 479" version="1.1" xmlns="http://www.w3.org/2000/svg" xmlns:xlink="http://www.w3.org/1999/xlink">
    <!-- Generator: Sketch 42 (36781) - http://www.bohemiancoding.com/sketch -->
    <title>Fill 184</title>
    <desc>Created with Sketch.</desc>
    <defs></defs>
    <g id="Page-1" stroke="none" stroke-width="1" fill="none" fill-rule="evenodd">
        <g id="Icon-Set" transform="translate(-1306.000000, -323.000000)" fill="#f9f9f9">
            <path d="M1545.5,632.1945 L1335.9375,472.6875 L1545.20063,357.892156 L1755.0625,472.6875 L1545.5,632.1945 L1545.5,632.1945 Z M1755.0625,742.125 C1755.0625,745.163656 1754.47872,748.037656 1753.64047,750.776937 L1619.37078,616.492281 L1755.0625,508.238281 L1755.0625,742.125 L1755.0625,742.125 Z M1359.22888,771.254187 L1496.73181,633.75125 L1545.5,667.28125 L1594.26819,633.75125 L1731.77112,771.254187 C1729.63059,771.748156 1361.36941,771.748156 1359.22888,771.254187 L1359.22888,771.254187 Z M1335.9375,742.125 L1335.9375,508.238281 L1471.64419,616.492281 L1337.35953,750.776937 C1336.52128,748.037656 1335.9375,745.163656 1335.9375,742.125 L1335.9375,742.125 Z M1545.5,323 L1306,457.71875 L1306,742.125 C1306,775.190969 1332.80903,802 1365.875,802 L1725.125,802 C1758.19097,802 1785,775.190969 1785,742.125 L1785,457.71875 L1545.5,323 L1545.5,323 Z" id="Fill-184"></path>
        </g>
    </g>
</svg>
