<?xml version="1.0" encoding="UTF-8"?>
<svg width="412px" height="549px" viewBox="0 0 412 549" version="1.1" xmlns="http://www.w3.org/2000/svg" xmlns:xlink="http://www.w3.org/1999/xlink">
    <!-- Generator: Sketch 42 (36781) - http://www.bohemiancoding.com/sketch -->
    <title>Fill 162</title>
    <desc>Created with Sketch.</desc>
    <defs></defs>
    <g id="Welcome" stroke="none" stroke-width="1" fill="none" fill-rule="evenodd">
        <g id="Bildschirm-Groß" transform="translate(-191.000000, -4153.000000)" fill="#D3D3D3">
            <g id="Group-13" transform="translate(0.000000, 2606.000000)">
                <g id="Group-3" transform="translate(0.000000, 1501.000000)">
                    <path d="M396.874961,303.343701 C368.44706,303.343701 345.406221,280.302862 345.406221,251.874961 C345.406221,223.44706 368.44706,200.406221 396.874961,200.406221 C425.302862,200.406221 448.343701,223.44706 448.343701,251.874961 C448.343701,280.302862 425.302862,303.343701 396.874961,303.343701 L396.874961,303.343701 Z M396.874961,166.093727 C349.506564,166.093727 311.093727,204.489408 311.093727,251.874961 C311.093727,299.260515 349.506564,337.656195 396.874961,337.656195 C444.243358,337.656195 482.656195,299.260515 482.656195,251.874961 C482.656195,204.489408 444.243358,166.093727 396.874961,166.093727 L396.874961,166.093727 Z M396.874961,543.531156 C368.344123,543.685562 225.312494,323.605229 225.312494,251.874961 C225.312494,157.138166 302.12101,80.3124935 396.874961,80.3124935 C491.628912,80.3124935 568.437429,157.138166 568.437429,251.874961 C568.437429,322.644479 424.959737,543.685562 396.874961,543.531156 L396.874961,543.531156 Z M396.874961,46 C283.180514,46 191,138.180514 191,251.874961 C191,337.965007 362.648249,595.188615 396.874961,594.999896 C430.56983,595.188615 602.749922,336.798383 602.749922,251.874961 C602.749922,138.180514 510.569408,46 396.874961,46 L396.874961,46 Z" id="Fill-162"></path>
                </g>
            </g>
        </g>
    </g>
</svg>